HIERARCHY
ROOT Hips
{
	OFFSET 0.000000 0.000000 0.000000
	CHANNELS 6 Xposition Yposition Zposition Xrotation Yrotation Zrotation
	JOINT LeftUpLeg_virtual
	{
		OFFSET 0.000000 0.000000 0.000000
		CHANNELS 3 Xrotation Yrotation Zrotation
		JOINT LeftUpLeg
		{
			OFFSET 13.026900 -6.336304 -1.092800
			CHANNELS 3 Xrotation Yrotation Zrotation
			JOINT LeftLeg
			{
				OFFSET 0.524474 -46.096886 9.782700
				CHANNELS 3 Xrotation Yrotation Zrotation
				JOINT LeftFoot
				{
					OFFSET -0.524474 -53.427422 -12.948200
					CHANNELS 3 Xrotation Yrotation Zrotation
					JOINT LeftToeBase
					{
						OFFSET 0.192200 -14.009700 16.364100
						CHANNELS 3 Xrotation Yrotation Zrotation
						JOINT LeftToe_End
						{
							OFFSET -1.784700 -0.561700 9.474800
							CHANNELS 3 Xrotation Yrotation Zrotation
							End Site
							{
								OFFSET 0 0 0
							}
						}
					}
				}
			}
		}
	}
	JOINT RightUpLeg_virtual
	{
		OFFSET 0.000000 0.000000 0.000000
		CHANNELS 3 Xrotation Yrotation Zrotation
		JOINT RightUpLeg
		{
			OFFSET -12.883000 -6.336304 -1.092800
			CHANNELS 3 Xrotation Yrotation Zrotation
			JOINT RightLeg
			{
				OFFSET -0.524587 -46.096825 9.782800
				CHANNELS 3 Xrotation Yrotation Zrotation
				JOINT RightFoot
				{
					OFFSET 0.524587 -53.427383 -12.948300
					CHANNELS 3 Xrotation Yrotation Zrotation
					JOINT RightToeBase
					{
						OFFSET -0.192200 -14.009700 16.364100
						CHANNELS 3 Xrotation Yrotation Zrotation
						JOINT RightToe_End
						{
							OFFSET 1.784700 -0.561700 9.474800
							CHANNELS 3 Xrotation Yrotation Zrotation
							End Site
							{
								OFFSET 0 0 0
							}
						}
					}
				}
			}
		}
	}
	JOINT Spine_virtual
	{
		OFFSET 0.000000 0.000000 0.000000
		CHANNELS 3 Xrotation Yrotation Zrotation
		JOINT Spine
		{
			OFFSET 0.072000 7.257294 -0.789700
			CHANNELS 3 Xrotation Yrotation Zrotation
			JOINT Spine1
			{
				OFFSET 0.000000 12.508769 -0.658067
				CHANNELS 3 Xrotation Yrotation Zrotation
				JOINT Spine1_split
				{
					OFFSET 0.000000 12.508769 -0.658067
					CHANNELS 3 Xrotation Yrotation Zrotation
					JOINT Spine2
					{
						OFFSET 0.000000 12.508769 -0.658067
						CHANNELS 3 Xrotation Yrotation Zrotation
						JOINT Neck_virtual
						{
							OFFSET 0.000000 0.000000 0.000000
							CHANNELS 3 Xrotation Yrotation Zrotation
							JOINT Neck
							{
								OFFSET 0.000000 14.033295 7.520400
								CHANNELS 3 Xrotation Yrotation Zrotation
								JOINT Head
								{
									OFFSET 0.000000 8.198502 5.703100
									CHANNELS 3 Xrotation Yrotation Zrotation
									JOINT HeadTop_End
									{
										OFFSET 0.000000 17.760803 13.332701
										CHANNELS 3 Xrotation Yrotation Zrotation
										End Site
										{
											OFFSET 0 0 0
										}
									}
								}
							}
						}
						JOINT LeftShoulder_virtual
						{
							OFFSET 0.000000 0.000000 0.000000
							CHANNELS 3 Xrotation Yrotation Zrotation
							JOINT LeftShoulder
							{
								OFFSET 6.292450 5.785301 -0.669000
								CHANNELS 3 Xrotation Yrotation Zrotation
								JOINT LeftShoulder_split
								{
									OFFSET 6.292450 5.785301 -0.669000
									CHANNELS 3 Xrotation Yrotation Zrotation
									JOINT LeftArm
									{
										OFFSET 13.907140 -6.093903 1.965100
										CHANNELS 3 Xrotation Yrotation Zrotation
										JOINT LeftForeArm
										{
											OFFSET 34.140198 0.000000 0.000000
											CHANNELS 3 Xrotation Yrotation Zrotation
											JOINT LeftHand
											{
												OFFSET 40.960209 0.000000 0.000000
												CHANNELS 3 Xrotation Yrotation Zrotation
												End Site
												{
													OFFSET 0 0 0
												}
											}
										}
									}
								}
							}
						}
						JOINT RightShoulder_virtual
						{
							OFFSET 0.000000 0.000000 0.000000
							CHANNELS 3 Xrotation Yrotation Zrotation
							JOINT RightShoulder
							{
								OFFSET -6.292450 5.785301 -0.669000
								CHANNELS 3 Xrotation Yrotation Zrotation
								JOINT RightShoulder_split
								{
									OFFSET -6.292450 5.785301 -0.669000
									CHANNELS 3 Xrotation Yrotation Zrotation
									JOINT RightArm
									{
										OFFSET -13.907140 -6.093903 1.965100
										CHANNELS 3 Xrotation Yrotation Zrotation
										JOINT RightForeArm
										{
											OFFSET -34.140198 0.000000 0.000000
											CHANNELS 3 Xrotation Yrotation Zrotation
											JOINT RightHand
											{
												OFFSET -40.960209 0.000000 0.000000
												CHANNELS 3 Xrotation Yrotation Zrotation
												End Site
												{
													OFFSET 0 0 0
												}
											}
										}
									}
								}
							}
						}
					}
				}
			}
		}
	}
}
MOTION
Frames: 4
Frame Time: 0.03333333
-1.054674 114.167595 -3.204159 0.000000 0.000000 0.000000 -4.010538 1.151281 2.536090 -4.335265 7.973312 7.029450 15.427806 4.761156 -0.543023 -7.936261 0.864046 -5.498917 0.938894 0.036139 -0.908829 0.000000 0.000000 0.000000 -3.995708 1.166791 2.616691 -9.048247 -9.325257 -12.428349 22.466951 -4.707426 -0.374678 -7.661883 -2.492484 8.118571 -3.943385 0.044128 0.444390 0.000000 0.000000 0.000000 -3.131211 1.705290 2.332141 3.553796 -0.443108 0.251012 1.467680 -0.477829 0.723811 0.884204 0.070013 0.143356 0.000000 0.000000 0.000000 0.900409 -0.075692 0.211609 0.182349 0.582384 -0.778085 -4.404934 -4.983618 -1.669412 0.000000 0.000000 0.000000 0.860417 -0.154999 0.388044 0.918908 -2.115015 -15.790371 -0.028558 -0.194488 -0.532608 4.741875 -8.282352 -37.415653 0.953980 -64.852831 0.863829 0.000000 0.000000 0.000000 0.942428 -0.077082 0.439961 1.124002 5.085002 20.496371 1.541083 1.194743 -1.747664 -2.912920 5.567665 57.573393 0.343140 18.473162 0.380242 0.000000 0.000000 0.000000 
-1.106479 114.165657 -3.153122 0.000000 0.000000 0.000000 -4.068090 1.144076 2.579686 -4.309689 8.098570 7.018108 15.368115 4.722947 -0.507204 -7.836505 0.874080 -5.470010 0.957006 0.037625 -0.916571 0.000000 0.000000 0.000000 -4.021526 1.146291 2.652145 -9.024049 -9.289806 -12.437130 22.558918 -4.669750 -0.366598 -7.658687 -2.477539 8.205263 -3.952847 0.043533 0.429994 0.000000 0.000000 0.000000 -3.191522 1.765142 2.361628 3.546802 -0.447609 0.241360 1.446478 -0.463567 0.749088 0.930476 0.003097 0.174051 0.000000 0.000000 0.000000 0.931772 -0.070296 0.252485 0.149846 0.676216 -0.917694 -4.254760 -5.000692 -1.638601 0.000000 0.000000 0.000000 0.810357 -0.134985 0.388288 0.955217 -2.076543 -15.771467 -0.120357 -0.417396 -0.524316 4.853395 -8.285960 -37.412187 0.960589 -64.781721 0.869548 0.000000 0.000000 0.000000 0.949642 -0.060388 0.470880 1.163700 4.887971 20.365688 1.172708 1.024034 -1.674426 -2.999062 5.835561 57.245134 0.410516 17.984528 0.432610 0.000000 0.000000 0.000000 
-1.136657 114.169014 -3.107498 0.000000 0.000000 0.000000 -4.106836 1.296032 2.657886 -4.265851 8.213767 6.940146 15.202270 4.677755 -0.465593 -7.695976 0.870279 -5.363461 0.974538 0.038351 -0.929811 0.000000 0.000000 0.000000 -4.058273 1.259324 2.724673 -8.898674 -9.276991 -12.440162 22.643600 -4.683869 -0.358853 -7.700295 -2.496714 8.309346 -3.946334 0.037848 0.428205 0.000000 0.000000 0.000000 -3.254150 1.913647 2.420882 3.512287 -0.449803 0.224519 1.416814 -0.454760 0.760876 0.910177 -0.002178 0.200061 0.000000 0.000000 0.000000 0.941532 -0.073726 0.280675 0.168311 0.865822 -1.023834 -3.925170 -4.901902 -1.571188 0.000000 0.000000 0.000000 0.775424 -0.115992 0.372332 1.003930 -2.007916 -15.714431 -0.163491 -0.606550 -0.573049 4.943098 -8.267631 -37.443162 0.996846 -64.737940 0.935628 0.000000 0.000000 0.000000 0.962977 -0.049273 0.483669 1.240511 4.717989 19.994846 0.860626 0.964230 -1.575041 -3.202321 6.052731 57.146547 0.466280 17.427006 0.464679 0.000000 0.000000 0.000000 
-1.135380 114.169464 -3.062149 0.000000 0.000000 0.000000 -4.136537 1.573389 2.751855 -4.223969 8.303423 6.807432 14.992767 4.610875 -0.420112 -7.549199 0.851371 -5.200186 0.990389 0.037495 -0.944150 0.000000 0.000000 0.000000 -4.101208 1.496658 2.816732 -8.679798 -9.291204 -12.435362 22.691362 -4.756332 -0.355165 -7.803312 -2.544130 8.415158 -3.919219 0.030674 0.434653 0.000000 0.000000 0.000000 -3.320908 2.117684 2.498457 3.456342 -0.447120 0.210596 1.378570 -0.450936 0.758345 0.846996 0.049675 0.204595 0.000000 0.000000 0.000000 0.925230 -0.084868 0.296838 0.233769 1.142372 -1.092599 -3.455348 -4.705792 -1.466863 0.000000 0.000000 0.000000 0.749152 -0.102711 0.346296 1.057563 -1.925739 -15.627379 -0.193902 -0.730639 -0.632916 4.984128 -8.228956 -37.503800 1.055171 -64.720851 1.048397 0.000000 0.000000 0.000000 0.978576 -0.042422 0.478223 1.342581 4.582488 19.419937 0.653600 0.959298 -1.488979 -3.422170 6.192617 57.286139 0.501973 16.999209 0.467936 0.000000 0.000000 0.000000 
